# xmcd CD database file
#
# Track frame offsets:
#	150
#	58963
#	89667
#	109206
#	148810
#	189972
#
# Disc length: 3057 seconds
#
# Revision: 0
# Processed by: cddbd v1.4PL0 Copyright (c) Steve Scherf et al.
# Submitted via: CDex 1.51
#
DISCID=590bef06
DTITLE=Medwyn Goodall - The Magic of Easter Island
DYEAR=2001
DGENRE=New Age
TTITLE0=Midori - The Magic Of Easter Island - 01 - Islands
TTITLE1=Midori - The Magic Of Easter Island - 02 - Watcher Of The Sea
TTITLE2=Midori - The Magic Of Easter Island - 03 - Sacred Mountain
TTITLE3=Midori - The Magic Of Easter Island - 04 - The Mist And The Stillness
TTITLE4=Midori - The Magic Of Easter Island - 05 - Idols
TTITLE5=Midori - The Magic Of Easter Island - 06 - The Wonder
EXTD=YEAR: 2001
EXTT0=
EXTT1=
EXTT2=
EXTT3=
EXTT4=
EXTT5=
PLAYORDER=
